<mxfile host="Electron" agent="Mozilla/5.0 (Windows NT 10.0; Win64; x64) AppleWebKit/537.36 (KHTML, like Gecko) draw.io/26.2.2 Chrome/134.0.6998.178 Electron/35.1.2 Safari/537.36" version="26.2.2">
  <diagram name="第 1 页" id="qAtdwHFBNQzLcddSETay">
    <mxGraphModel dx="1491" dy="894" grid="0" gridSize="10" guides="1" tooltips="1" connect="1" arrows="1" fold="1" page="0" pageScale="1" pageWidth="827" pageHeight="1169" math="0" shadow="0">
      <root>
        <mxCell id="0" />
        <mxCell id="1" parent="0" />
        <mxCell id="q6BvkhpDXM2EdqRPXrxI-1" value="使用者" style="swimlane;whiteSpace=wrap;fillColor=#f5f5f5;fontColor=#333333;strokeColor=#666666;fontSize=15;" vertex="1" parent="1">
          <mxGeometry x="310" y="70" width="450" height="600" as="geometry" />
        </mxCell>
        <mxCell id="q6BvkhpDXM2EdqRPXrxI-2" value="" style="ellipse;shape=startState;fillColor=#000000;strokeColor=none;fontSize=15;" vertex="1" parent="q6BvkhpDXM2EdqRPXrxI-1">
          <mxGeometry x="29" y="82" width="30" height="30" as="geometry" />
        </mxCell>
        <mxCell id="q6BvkhpDXM2EdqRPXrxI-3" value="" style="edgeStyle=elbowEdgeStyle;elbow=horizontal;verticalAlign=bottom;endArrow=classic;endSize=8;strokeColor=#000000;endFill=1;rounded=0;entryX=0;entryY=0.5;entryDx=0;entryDy=0;fontSize=15;" edge="1" parent="q6BvkhpDXM2EdqRPXrxI-1" source="q6BvkhpDXM2EdqRPXrxI-2" target="q6BvkhpDXM2EdqRPXrxI-4">
          <mxGeometry x="100" y="40" as="geometry">
            <mxPoint x="4.5" y="99" as="targetPoint" />
          </mxGeometry>
        </mxCell>
        <mxCell id="q6BvkhpDXM2EdqRPXrxI-4" value="&lt;span style=&quot;text-wrap-mode: nowrap;&quot;&gt;點選&lt;/span&gt;AI生成文章" style="rounded=1;whiteSpace=wrap;html=1;fillColor=#e1d5e7;strokeColor=#9673a6;fontSize=15;" vertex="1" parent="q6BvkhpDXM2EdqRPXrxI-1">
          <mxGeometry x="114" y="67" width="120" height="60" as="geometry" />
        </mxCell>
        <mxCell id="q6BvkhpDXM2EdqRPXrxI-6" value="選擇主題/風格/&lt;br&gt;難度等條件" style="rounded=1;whiteSpace=wrap;html=1;fillColor=#e1d5e7;strokeColor=#9673a6;fontSize=15;" vertex="1" parent="q6BvkhpDXM2EdqRPXrxI-1">
          <mxGeometry x="289" y="67" width="120" height="60" as="geometry" />
        </mxCell>
        <mxCell id="q6BvkhpDXM2EdqRPXrxI-7" value="" style="endArrow=classic;strokeColor=#000000;endFill=1;rounded=0;exitX=1;exitY=0.5;exitDx=0;exitDy=0;entryX=0;entryY=0.5;entryDx=0;entryDy=0;fontSize=15;" edge="1" parent="q6BvkhpDXM2EdqRPXrxI-1" source="q6BvkhpDXM2EdqRPXrxI-4" target="q6BvkhpDXM2EdqRPXrxI-6">
          <mxGeometry relative="1" as="geometry">
            <mxPoint x="114.5" y="99" as="sourcePoint" />
            <mxPoint x="168.66666666666674" y="164" as="targetPoint" />
          </mxGeometry>
        </mxCell>
        <mxCell id="q6BvkhpDXM2EdqRPXrxI-8" value="" style="ellipse;shape=endState;fillColor=#000000;strokeColor=#000000;fontSize=15;" vertex="1" parent="q6BvkhpDXM2EdqRPXrxI-1">
          <mxGeometry x="29" y="416" width="30" height="30" as="geometry" />
        </mxCell>
        <mxCell id="q6BvkhpDXM2EdqRPXrxI-44" style="edgeStyle=orthogonalEdgeStyle;rounded=0;orthogonalLoop=1;jettySize=auto;html=1;entryX=1;entryY=0.5;entryDx=0;entryDy=0;" edge="1" parent="q6BvkhpDXM2EdqRPXrxI-1" source="q6BvkhpDXM2EdqRPXrxI-15" target="q6BvkhpDXM2EdqRPXrxI-45">
          <mxGeometry relative="1" as="geometry" />
        </mxCell>
        <mxCell id="q6BvkhpDXM2EdqRPXrxI-15" value="顯示點數不足&lt;br&gt;錯誤訊息" style="rounded=1;whiteSpace=wrap;html=1;fillColor=#e1d5e7;strokeColor=#9673a6;fontSize=15;" vertex="1" parent="q6BvkhpDXM2EdqRPXrxI-1">
          <mxGeometry x="277" y="313" width="120" height="60" as="geometry" />
        </mxCell>
        <mxCell id="q6BvkhpDXM2EdqRPXrxI-43" style="edgeStyle=orthogonalEdgeStyle;rounded=0;orthogonalLoop=1;jettySize=auto;html=1;entryX=0.5;entryY=1;entryDx=0;entryDy=0;" edge="1" parent="q6BvkhpDXM2EdqRPXrxI-1" source="q6BvkhpDXM2EdqRPXrxI-38" target="q6BvkhpDXM2EdqRPXrxI-8">
          <mxGeometry relative="1" as="geometry" />
        </mxCell>
        <mxCell id="q6BvkhpDXM2EdqRPXrxI-38" value="顯示生成文章" style="rounded=1;whiteSpace=wrap;html=1;fillColor=#e1d5e7;strokeColor=#9673a6;fontSize=15;" vertex="1" parent="q6BvkhpDXM2EdqRPXrxI-1">
          <mxGeometry x="192" y="477" width="120" height="60" as="geometry" />
        </mxCell>
        <mxCell id="q6BvkhpDXM2EdqRPXrxI-46" style="edgeStyle=orthogonalEdgeStyle;rounded=0;orthogonalLoop=1;jettySize=auto;html=1;entryX=0.5;entryY=0;entryDx=0;entryDy=0;" edge="1" parent="q6BvkhpDXM2EdqRPXrxI-1" source="q6BvkhpDXM2EdqRPXrxI-45" target="q6BvkhpDXM2EdqRPXrxI-8">
          <mxGeometry relative="1" as="geometry" />
        </mxCell>
        <mxCell id="q6BvkhpDXM2EdqRPXrxI-45" value="導向購買點數畫面" style="rounded=1;whiteSpace=wrap;html=1;fillColor=#e1d5e7;strokeColor=#9673a6;fontSize=15;" vertex="1" parent="q6BvkhpDXM2EdqRPXrxI-1">
          <mxGeometry x="87" y="313" width="137" height="60" as="geometry" />
        </mxCell>
        <mxCell id="q6BvkhpDXM2EdqRPXrxI-16" value="伺服器" style="swimlane;whiteSpace=wrap;fillColor=#f5f5f5;fontColor=#333333;strokeColor=#666666;fontSize=15;" vertex="1" parent="1">
          <mxGeometry x="760" y="70" width="450" height="600" as="geometry" />
        </mxCell>
        <mxCell id="q6BvkhpDXM2EdqRPXrxI-17" value="驗證使用者是否擁有足夠點數" style="shape=note;whiteSpace=wrap;size=17;align=left;fillColor=#e1d5e7;strokeColor=#9673a6;perimeterSpacing=0;spacingLeft=5;fontSize=15;" vertex="1" parent="q6BvkhpDXM2EdqRPXrxI-16">
          <mxGeometry x="286" y="184" width="115.5" height="72" as="geometry" />
        </mxCell>
        <mxCell id="q6BvkhpDXM2EdqRPXrxI-20" style="edgeStyle=orthogonalEdgeStyle;rounded=0;orthogonalLoop=1;jettySize=auto;html=1;entryX=0.5;entryY=0;entryDx=0;entryDy=0;" edge="1" parent="q6BvkhpDXM2EdqRPXrxI-16" source="q6BvkhpDXM2EdqRPXrxI-21" target="q6BvkhpDXM2EdqRPXrxI-23">
          <mxGeometry relative="1" as="geometry" />
        </mxCell>
        <mxCell id="q6BvkhpDXM2EdqRPXrxI-21" value="驗證點數" style="rounded=1;whiteSpace=wrap;html=1;fillColor=#e1d5e7;strokeColor=#9673a6;fontSize=15;" vertex="1" parent="q6BvkhpDXM2EdqRPXrxI-16">
          <mxGeometry x="76" y="190" width="119.25" height="60" as="geometry" />
        </mxCell>
        <mxCell id="q6BvkhpDXM2EdqRPXrxI-22" style="edgeStyle=orthogonalEdgeStyle;rounded=0;orthogonalLoop=1;jettySize=auto;html=1;entryX=0;entryY=0.5;entryDx=0;entryDy=0;" edge="1" parent="q6BvkhpDXM2EdqRPXrxI-16" source="q6BvkhpDXM2EdqRPXrxI-23" target="q6BvkhpDXM2EdqRPXrxI-24">
          <mxGeometry relative="1" as="geometry" />
        </mxCell>
        <mxCell id="q6BvkhpDXM2EdqRPXrxI-23" value="" style="rhombus;whiteSpace=wrap;html=1;fillColor=#e1d5e7;strokeColor=#9673a6;fontSize=15;" vertex="1" parent="q6BvkhpDXM2EdqRPXrxI-16">
          <mxGeometry x="122.25" y="326" width="27.5" height="34" as="geometry" />
        </mxCell>
        <mxCell id="q6BvkhpDXM2EdqRPXrxI-24" value="呼叫 AI 模型生成文章" style="rounded=1;whiteSpace=wrap;html=1;fillColor=#e1d5e7;strokeColor=#9673a6;fontSize=15;" vertex="1" parent="q6BvkhpDXM2EdqRPXrxI-16">
          <mxGeometry x="288" y="313" width="120" height="60" as="geometry" />
        </mxCell>
        <mxCell id="q6BvkhpDXM2EdqRPXrxI-25" value="&lt;table&gt;&lt;tbody&gt;&lt;tr&gt;&lt;td data-end=&quot;646&quot; data-start=&quot;639&quot; class=&quot;max-w-[calc(var(--thread-content-max-width)*2/3)]&quot;&gt;&lt;/td&gt;&lt;/tr&gt;&lt;/tbody&gt;&lt;/table&gt;&lt;table&gt;&lt;tbody&gt;&lt;tr&gt;&lt;td data-end=&quot;684&quot; data-start=&quot;646&quot; class=&quot;max-w-[calc(var(--thread-content-max-width)*2/3)]&quot;&gt;扣除使用者相應點數&lt;/td&gt;&lt;/tr&gt;&lt;/tbody&gt;&lt;/table&gt;" style="rounded=1;whiteSpace=wrap;html=1;fillColor=#e1d5e7;strokeColor=#9673a6;fontSize=15;" vertex="1" parent="q6BvkhpDXM2EdqRPXrxI-16">
          <mxGeometry x="288" y="477" width="120" height="60" as="geometry" />
        </mxCell>
        <mxCell id="q6BvkhpDXM2EdqRPXrxI-26" style="edgeStyle=orthogonalEdgeStyle;rounded=0;orthogonalLoop=1;jettySize=auto;html=1;entryX=0.5;entryY=0;entryDx=0;entryDy=0;fontSize=15;exitX=0.5;exitY=1;exitDx=0;exitDy=0;" edge="1" parent="q6BvkhpDXM2EdqRPXrxI-16" source="q6BvkhpDXM2EdqRPXrxI-24" target="q6BvkhpDXM2EdqRPXrxI-25">
          <mxGeometry relative="1" as="geometry" />
        </mxCell>
        <mxCell id="q6BvkhpDXM2EdqRPXrxI-27" value="" style="endArrow=none;strokeColor=#000000;endFill=0;rounded=0;dashed=1;exitX=1;exitY=0.5;exitDx=0;exitDy=0;fontColor=default;fontSize=15;entryX=0;entryY=0.5;entryDx=0;entryDy=0;entryPerimeter=0;" edge="1" parent="q6BvkhpDXM2EdqRPXrxI-16" source="q6BvkhpDXM2EdqRPXrxI-21" target="q6BvkhpDXM2EdqRPXrxI-17">
          <mxGeometry relative="1" as="geometry">
            <mxPoint x="180" y="115.75999999999999" as="sourcePoint" />
            <mxPoint x="239" y="115.75999999999999" as="targetPoint" />
          </mxGeometry>
        </mxCell>
        <mxCell id="q6BvkhpDXM2EdqRPXrxI-28" value="[點數足夠]" style="text;html=1;align=center;verticalAlign=middle;resizable=0;points=[];autosize=1;strokeColor=none;fillColor=none;fontSize=15;rotation=0;" vertex="1" parent="q6BvkhpDXM2EdqRPXrxI-16">
          <mxGeometry x="176" y="313" width="86" height="30" as="geometry" />
        </mxCell>
        <mxCell id="q6BvkhpDXM2EdqRPXrxI-29" value="[點數不足]" style="text;html=1;align=center;verticalAlign=middle;resizable=0;points=[];autosize=1;strokeColor=none;fillColor=none;fontSize=15;rotation=0;" vertex="1" parent="q6BvkhpDXM2EdqRPXrxI-16">
          <mxGeometry x="3" y="313" width="86" height="30" as="geometry" />
        </mxCell>
        <mxCell id="q6BvkhpDXM2EdqRPXrxI-37" style="edgeStyle=orthogonalEdgeStyle;rounded=0;orthogonalLoop=1;jettySize=auto;html=1;entryX=0.5;entryY=0;entryDx=0;entryDy=0;" edge="1" parent="q6BvkhpDXM2EdqRPXrxI-16" source="q6BvkhpDXM2EdqRPXrxI-33" target="q6BvkhpDXM2EdqRPXrxI-21">
          <mxGeometry relative="1" as="geometry" />
        </mxCell>
        <mxCell id="q6BvkhpDXM2EdqRPXrxI-33" value="&lt;table&gt;&lt;tbody&gt;&lt;tr&gt;&lt;td data-end=&quot;400&quot; data-start=&quot;393&quot; class=&quot;max-w-[calc(var(--thread-content-max-width)*2/3)]&quot;&gt;&lt;/td&gt;&lt;/tr&gt;&lt;/tbody&gt;&lt;/table&gt;&lt;table&gt;&lt;tbody&gt;&lt;tr&gt;&lt;td data-end=&quot;435&quot; data-start=&quot;400&quot; class=&quot;max-w-[calc(var(--thread-content-max-width)*2/3)]&quot;&gt;接收生成請求與使用者選項&lt;/td&gt;&lt;/tr&gt;&lt;/tbody&gt;&lt;/table&gt;" style="rounded=1;whiteSpace=wrap;html=1;fillColor=#e1d5e7;strokeColor=#9673a6;fontSize=15;" vertex="1" parent="q6BvkhpDXM2EdqRPXrxI-16">
          <mxGeometry x="75.25" y="67" width="120" height="60" as="geometry" />
        </mxCell>
        <mxCell id="q6BvkhpDXM2EdqRPXrxI-10" value="回傳生成的文章給使用者" style="rounded=1;whiteSpace=wrap;html=1;fillColor=#e1d5e7;strokeColor=#9673a6;fontSize=15;" vertex="1" parent="q6BvkhpDXM2EdqRPXrxI-16">
          <mxGeometry x="75.25" y="477" width="133" height="60" as="geometry" />
        </mxCell>
        <mxCell id="q6BvkhpDXM2EdqRPXrxI-32" style="edgeStyle=orthogonalEdgeStyle;rounded=0;orthogonalLoop=1;jettySize=auto;html=1;" edge="1" parent="q6BvkhpDXM2EdqRPXrxI-16" source="q6BvkhpDXM2EdqRPXrxI-25" target="q6BvkhpDXM2EdqRPXrxI-10">
          <mxGeometry relative="1" as="geometry" />
        </mxCell>
        <mxCell id="q6BvkhpDXM2EdqRPXrxI-31" style="edgeStyle=orthogonalEdgeStyle;rounded=0;orthogonalLoop=1;jettySize=auto;html=1;exitX=0;exitY=0.5;exitDx=0;exitDy=0;entryX=1;entryY=0.5;entryDx=0;entryDy=0;" edge="1" parent="1" source="q6BvkhpDXM2EdqRPXrxI-23" target="q6BvkhpDXM2EdqRPXrxI-15">
          <mxGeometry relative="1" as="geometry" />
        </mxCell>
        <mxCell id="q6BvkhpDXM2EdqRPXrxI-36" style="edgeStyle=orthogonalEdgeStyle;rounded=0;orthogonalLoop=1;jettySize=auto;html=1;entryX=0;entryY=0.5;entryDx=0;entryDy=0;" edge="1" parent="1" source="q6BvkhpDXM2EdqRPXrxI-6" target="q6BvkhpDXM2EdqRPXrxI-33">
          <mxGeometry relative="1" as="geometry" />
        </mxCell>
        <mxCell id="q6BvkhpDXM2EdqRPXrxI-9" style="edgeStyle=orthogonalEdgeStyle;rounded=0;orthogonalLoop=1;jettySize=auto;html=1;entryX=1;entryY=0.5;entryDx=0;entryDy=0;" edge="1" parent="1" source="q6BvkhpDXM2EdqRPXrxI-10" target="q6BvkhpDXM2EdqRPXrxI-38">
          <mxGeometry relative="1" as="geometry" />
        </mxCell>
      </root>
    </mxGraphModel>
  </diagram>
</mxfile>
